<svg xmlns="http://www.w3.org/2000/svg" viewBox="0 0 96 96" id="pancake">
  <path fill="#bc2443" d="M92.46 73.74H3.54a2.54 2.54 0 010-5.08H92.46a2.54 2.54 0 010 5.08zM79.9 80.07H16.1a2.26 2.26 0 01-1.43-.5L7.33 73.74H88.67l-7.34 5.83A2.26 2.26 0 0179.9 80.07z"></path>
  <path fill="#ee4266" d="M92.46,73.74H42.12a2.54,2.54,0,0,1,0-5.08H92.46a2.54,2.54,0,0,1,0,5.08Z"></path>
  <rect width="32.22" height="2.54" x="51.18" y="68.66" fill="#eec9d9" rx="1.27"></rect>
  <path fill="#bc2443" d="M88.67,73.74l-7.34,5.83a2.26,2.26,0,0,1-1.43.5H16.1a2.26,2.26,0,0,1-1.43-.5L7.33,73.74Z"></path>
  <path fill="#ee4266" d="M88.67,73.74l-7.34,5.83a2.26,2.26,0,0,1-1.43.5H50.77a2.26,2.26,0,0,1-1.43-.5L42,73.74Z"></path>
  <path fill="#ee8db6" d="M50.77,78.07c-.15,0,.08.15-3-2.33H82.94L80.09,78C80,78.11,82,78.07,50.77,78.07Z"></path>
  <path fill="#302d3d" d="M92.46,74.74H3.54a3.54,3.54,0,0,1,0-7.08H92.46a3.54,3.54,0,1,1,0,7.08ZM3.54,69.66a1.54,1.54,0,1,0,0,3.08H92.46a1.54,1.54,0,0,0,0-3.08Z"></path>
  <path fill="#302d3d" d="M79.9,81.07H16.1a3.31,3.31,0,0,1-2.05-.71L6.71,74.52a1,1,0,0,1,.62-1.78H88.67a1,1,0,0,1,.62,1.78L82,80.36A3.31,3.31,0,0,1,79.9,81.07ZM10.2,74.74l5.1,4.05a1.28,1.28,0,0,0,.8.28c68.17,0,64.05.16,64.61-.28l5.09-4.05Z"></path>
  <path fill="#ff7b5f" d="M75,68.66H21a3,3,0,0,1,0-6H75a3,3,0,0,1,0,6Z"></path>
  <path fill="#ffad82" d="M66.52,68.66h-37a3,3,0,0,1,0-6h37a3,3,0,0,1,0,6Z"></path>
  <path fill="#ff7b5f" d="M76.85,62.61H22.9a3,3,0,0,1,0-6h54a3,3,0,1,1,0,6Z"></path>
  <path fill="#ffad82" d="M67.79,62.61H32a3,3,0,0,1,0-6H67.79a3,3,0,0,1,0,6Z"></path>
  <path fill="#ff7b5f" d="M78.16,56.57h-54a3,3,0,1,1,0-6h54a3,3,0,1,1,0,6Z"></path>
  <path fill="#ffad82" d="M70,56.57H32.33a3,3,0,1,1,0-6H70a3,3,0,0,1,0,6Z"></path>
  <path fill="#ff7b5f" d="M74.17,50.53h-54a3,3,0,1,1,0-6h54a3,3,0,1,1,0,6Z"></path>
  <path fill="#ffad82" d="M65.85,50.53H28.52a3,3,0,1,1,0-6H65.85a3,3,0,1,1,0,6Z"></path>
  <path fill="#fff" d="M64.52 46.49H47.77a1 1 0 100 2H64.52a1 1 0 000-2zM65.19 52.53h-11a1 1 0 100 2h11a1 1 0 000-2zM65 58.57H63.33a1 1 0 000 2H65a1 1 0 100-2zM64.13 64.61H51.32a1 1 0 000 2H64.13a1 1 0 000-2z"></path>
  <path fill="#ff7b5f" d="M76.85,44.49H22.9a3,3,0,0,1,0-6h54a3,3,0,1,1,0,6Z"></path>
  <path fill="#ffad82" d="M67,44.49H32.71a3,3,0,1,1,0-6H67a3,3,0,1,1,0,6Z"></path>
  <path fill="#fff" d="M50.16,40.45H45.64a1,1,0,1,0,0,2h4.52a1,1,0,1,0,0-2Z"></path>
  <path fill="#ff7b5f" d="M76.29,38.45h-54a3,3,0,0,1,0-6h54a3,3,0,0,1,0,6Z"></path>
  <path fill="#ffad82" d="M70,38.45H28.58a3,3,0,1,1,0-6H70a3,3,0,0,1,0,6Z"></path>
  <path fill="#ff7b5f" d="M73.35,32.41H19.4a3,3,0,0,1,0-6h54a3,3,0,1,1,0,6Z"></path>
  <path fill="#ffad82" d="M65.85,32.41H26.9a3,3,0,1,1,0-6H65.85a3,3,0,1,1,0,6Z"></path>
  <path fill="#302d3d" d="M75,69.66H21a4,4,0,0,1,0-8H75a4,4,0,0,1,0,8Zm-54-6a2,2,0,0,0,0,4H75a2,2,0,0,0,0-4Z"></path>
  <path fill="#302d3d" d="M76.85,63.61H22.9a4,4,0,0,1,0-8h54a4,4,0,1,1,0,8Zm-53.95-6a2,2,0,0,0,0,4h54a2,2,0,1,0,0-4Z"></path>
  <path fill="#302d3d" d="M78.16,57.57h-54a4,4,0,1,1,0-8h54a4,4,0,1,1,0,8Zm-54-6a2,2,0,0,0,0,4h54a2,2,0,1,0,0-4Z"></path>
  <path fill="#302d3d" d="M74.17,51.53h-54a4,4,0,0,1,0-8h54a4,4,0,0,1,0,8Zm-54-6a2,2,0,0,0,0,4h54a2,2,0,0,0,0-4Z"></path>
  <path fill="#302d3d" d="M76.85,45.49H22.9a4,4,0,0,1,0-8h54a4,4,0,1,1,0,8Zm-53.95-6a2,2,0,1,0,0,4h54a2,2,0,1,0,0-4Z"></path>
  <path fill="#302d3d" d="M76.29,39.45h-54a4,4,0,1,1,0-8h54a4,4,0,0,1,0,8Zm-54-6a2,2,0,1,0,0,4h54a2,2,0,0,0,0-4Z"></path>
  <path fill="#302d3d" d="M73.35,33.41H19.4a4,4,0,0,1,0-8h54a4,4,0,1,1,0,8Zm-53.95-6a2,2,0,0,0,0,4.05h54a2,2,0,1,0,0-4.05Z"></path>
  <path fill="#f9c74f" d="M66.25,22.11H26.5a4.25,4.25,0,0,0-4.25,4.25h9.92a2.17,2.17,0,0,1,2.16,2.17V45.45a2,2,0,0,0,1.63,2,2,2,0,0,0,2.29-1.93v-17a2.17,2.17,0,0,1,2.17-2.17h5.33a2.17,2.17,0,0,1,2.17,2.17v4.83a2,2,0,0,0,1.63,2,2,2,0,0,0,2.28-1.93V28.53A2.17,2.17,0,0,1,54,26.36h0a2.17,2.17,0,0,1,2.17,2.17V39.05a2,2,0,0,0,1.63,2,2,2,0,0,0,2.28-1.93V28.53a2.17,2.17,0,0,1,2.17-2.17H70.5A4.25,4.25,0,0,0,66.25,22.11Z"></path>
  <path fill="#fff48e" d="M33.78,24.11v.59a4.18,4.18,0,0,1,1.86,1.54.77.77,0,0,0,1.29,0,4.17,4.17,0,0,1,3.49-1.89h5.33a4.14,4.14,0,0,1,3.48,1.89.77.77,0,0,0,1.29,0,4.17,4.17,0,0,1,7,0,.76.76,0,0,0,1.28,0,4.17,4.17,0,0,1,2.45-1.74v-.4Z"></path>
  <path fill="#fca158" d="M63.06 26.36H70.5a4.25 4.25 0 00-4.25-4.25H63.06zM31 22.11H26.5a4.25 4.25 0 00-4.25 4.25H31z"></path>
  <path fill="none" d="M66.25,22.11H26.5a4.25,4.25,0,0,0-4.25,4.25h9.92a2.17,2.17,0,0,1,2.16,2.17V45.45a2,2,0,0,0,1.63,2,2,2,0,0,0,2.29-1.93v-17a2.17,2.17,0,0,1,2.17-2.17h5.33a2.17,2.17,0,0,1,2.17,2.17v4.83a2,2,0,0,0,1.63,2,2,2,0,0,0,2.28-1.93V28.53A2.17,2.17,0,0,1,54,26.36h0a2.17,2.17,0,0,1,2.17,2.17V39.05a2,2,0,0,0,1.63,2,2,2,0,0,0,2.28-1.93V28.53a2.17,2.17,0,0,1,2.17-2.17H70.5A4.25,4.25,0,0,0,66.25,22.11Z"></path>
  <path fill="#302d3d" d="M36.29,48.51a3,3,0,0,1-3-3.06V28.53a1.17,1.17,0,0,0-1.16-1.17H22.25a1,1,0,0,1-1-1,5.26,5.26,0,0,1,5.25-5.25H66.25a5.26,5.26,0,0,1,5.25,5.25,1,1,0,0,1-1,1H62.25a1.18,1.18,0,0,0-1.17,1.17V39.16a3,3,0,1,1-5.91-.11V28.53a1.17,1.17,0,0,0-2.34,0v4.94a3,3,0,0,1-3.44,2.92,3,3,0,0,1-2.47-3V28.53a1.18,1.18,0,0,0-1.17-1.17H40.42a1.17,1.17,0,0,0-1.17,1.17v17A3,3,0,0,1,36.29,48.51ZM23.41,25.36h8.76a3.18,3.18,0,0,1,3.16,3.17V45.45a1.06,1.06,0,0,0,.79,1,1,1,0,0,0,1.13-1v-17a3.18,3.18,0,0,1,3.17-3.17h5.33a3.18,3.18,0,0,1,3.17,3.17v4.83a1,1,0,0,0,.79,1,1,1,0,0,0,1.12-.94V28.53a3.17,3.17,0,0,1,6.34,0V39.05a1,1,0,1,0,1.91.11V28.53a3.18,3.18,0,0,1,3.17-3.17h7.09a3.26,3.26,0,0,0-3.09-2.25H26.5A3.26,3.26,0,0,0,23.41,25.36Z"></path>
  <path fill="#f9c74f" d="M40.59,65.18V63.7a3,3,0,0,0-3-3h-1a3,3,0,0,0-3,3v1.48a3,3,0,0,0-3,3v.46H43.63V68.2A3,3,0,0,0,40.59,65.18Z"></path>
  <path fill="#302d3d" d="M43.62,69.66H30.5a1,1,0,0,1-1-1V68.2a4,4,0,0,1,3-3.9v-.6a4,4,0,0,1,4-4h1a4,4,0,0,1,4,4v.6a4,4,0,0,1,3,3.9v.46A1,1,0,0,1,43.62,69.66Zm-12-2h11a2,2,0,0,0-2-1.48,1,1,0,0,1-1-1V63.7a2,2,0,0,0-2-2h-1a2,2,0,0,0-2,2v1.48a1,1,0,0,1-1,1A2,2,0,0,0,31.57,67.66Z"></path>
  <path fill="#302d3d" d="M36.28,66.18H33.53a1,1,0,0,1,0-2h2.75a1,1,0,0,1,0,2Z"></path>
  <path fill="#fca158" d="M41.54,15.93h4.23a0,0,0,0,1,0,0v6.19a0,0,0,0,1,0,0H39.58a0,0,0,0,1,0,0V17.89A2,2,0,0,1,41.54,15.93Z"></path>
  <path fill="#302d3d" d="M45.77,23.11H39.58a1,1,0,0,1-1-1V17.89a3,3,0,0,1,3-3h4.23a1,1,0,0,1,1,1v6.18A1,1,0,0,1,45.77,23.11Zm-5.19-2h4.19V16.93H41.54a1,1,0,0,0-1,1Z"></path>
  <path fill="#fff48e" d="M45.77,15.93h7.36a2,2,0,0,1,2,2v4.23a0,0,0,0,1,0,0H45.77a0,0,0,0,1,0,0V15.93A0,0,0,0,1,45.77,15.93Z"></path>
  <path fill="#302d3d" d="M55.09,23.11H45.77a1,1,0,0,1-1-1V15.93a1,1,0,0,1,1-1h7.37a3,3,0,0,1,3,3v4.22A1,1,0,0,1,55.09,23.11Zm-8.32-2h7.32V17.89a1,1,0,0,0-1-1H46.77Z"></path>
  <path fill="#fff" d="M68.54 34.41H66.28a1 1 0 100 2h2.26a1 1 0 000-2zM31 28.36H26.52a1 1 0 000 2.05H31a1 1 0 000-2.05z"></path>
</svg>
